<svg width="65" height="65" viewBox="0 0 65 65" fill="none" xmlns="http://www.w3.org/2000/svg">
<path d="M35.2085 23.0208H24.3752C19.14 23.0208 14.896 18.7769 14.896 13.5417C14.896 8.30646 19.14 4.0625 24.3752 4.0625H35.2085V23.0208Z" fill="#E64A19"/>
<path d="M33.8543 41.9792H24.3752C19.14 41.9792 14.896 37.7352 14.896 32.5C14.896 27.2648 19.14 23.0209 24.3752 23.0209H33.8543V41.9792Z" fill="#7C4DFF"/>
<path d="M24.3752 60.9375C19.14 60.9375 14.896 56.6935 14.896 51.4583C14.896 46.2231 19.14 41.9791 24.3752 41.9791H33.8543V51.4583C33.8543 56.6935 29.6104 60.9375 24.3752 60.9375Z" fill="#66BB6A"/>
<path d="M43.3332 23.0208H33.854V4.0625H43.3332C48.5684 4.0625 52.8123 8.30646 52.8123 13.5417C52.8123 18.7769 48.5684 23.0208 43.3332 23.0208Z" fill="#FF7043"/>
<path d="M43.3332 41.9792C48.5684 41.9792 52.8123 37.7352 52.8123 32.5C52.8123 27.2648 48.5684 23.0209 43.3332 23.0209C38.098 23.0209 33.854 27.2648 33.854 32.5C33.854 37.7352 38.098 41.9792 43.3332 41.9792Z" fill="#29B6F6"/>
</svg>
