<svg width="69" height="49" viewBox="0 0 69 49" fill="none" xmlns="http://www.w3.org/2000/svg">
<g clip-path="url(#clip0_20_117)">
<mask id="mask0_20_117" style="mask-type:luminance" maskUnits="userSpaceOnUse" x="0" y="0" width="69" height="49">
<path d="M0 0H69V48.1091H0V0Z" fill="white"/>
</mask>
<g mask="url(#mask0_20_117)">
<path fill-rule="evenodd" clip-rule="evenodd" d="M34.5 0C25.3 0 19.55 5.34546 17.25 16.0364C20.7 10.6909 24.725 8.68636 29.325 10.0227C31.9496 10.7845 33.8253 12.9984 35.9017 15.4469C39.284 19.4367 43.1991 24.0545 51.75 24.0545C60.95 24.0545 66.7 18.7091 69 8.01818C65.55 13.3636 61.525 15.3682 56.925 14.0318C54.3004 13.2701 52.4247 11.0562 50.3483 8.60767C46.966 4.61788 43.0509 0 34.5 0ZM17.25 24.0545C8.05 24.0545 2.3 29.4 0 40.0909C3.45 34.7455 7.475 32.7409 12.075 34.0773C14.6996 34.8405 16.5753 37.0529 18.6517 39.5014C22.034 43.4912 25.9491 48.1091 34.5 48.1091C43.7 48.1091 49.45 42.7636 51.75 32.0727C48.3 37.4182 44.275 39.4227 39.675 38.0864C37.0504 37.3246 35.1747 35.1107 33.0983 32.6622C29.716 28.6724 25.8009 24.0545 17.25 24.0545Z" fill="#38BDF8"/>
</g>
</g>
<defs>
<clipPath id="clip0_20_117">
<rect width="69" height="49" fill="white"/>
</clipPath>
</defs>
</svg>
